HIERARCHY
ROOT Hips
{
  OFFSET 2.47017 101.704 132.841
  CHANNELS 6 Xposition Yposition Zposition Zrotation Xrotation Yrotation
  JOINT RightUpLeg
  {
    OFFSET -8.9458 -8.66707 0.101652
    CHANNELS 3 Zrotation Xrotation Yrotation
    JOINT RightLeg
    {
      OFFSET 0 -44.4227 1.3727
      CHANNELS 3 Zrotation Xrotation Yrotation
      JOINT RightFoot
      {
        OFFSET 0.253549 -42.0924 -1.46059
        CHANNELS 3 Zrotation Xrotation Yrotation
        JOINT RightToes
        {
          OFFSET 0.04 -4.41509 8.4991
          CHANNELS 3 Zrotation Xrotation Yrotation
          End Site
          {
            OFFSET -0.08 -0.137448 9.77979
          }
        }
      }
    }
  }
  JOINT Spine
  {
    OFFSET 0 11.8905 0
    CHANNELS 3 Zrotation Xrotation Yrotation
    JOINT Spine1
    {
      OFFSET 0 25.6574 0.127663
      CHANNELS 3 Zrotation Xrotation Yrotation
      JOINT HEad
      {
        OFFSET 0 8.73416 0.011341
        CHANNELS 3 Zrotation Xrotation Yrotation
        End Site
        {
          OFFSET -0.29 12.7742 2.51395
        }
      }
      JOINT LeftShoulder1
      {
        OFFSET 8.99 -0.362252 -0.22
        CHANNELS 3 Zrotation Xrotation Yrotation
        JOINT LeftArm
        {
          OFFSET 10.2827 -0.00338 0.322123
          CHANNELS 3 Zrotation Xrotation Yrotation
          JOINT LeftForeArm
          {
            OFFSET 32.7669 0.099144 -1.42434
            CHANNELS 3 Zrotation Xrotation Yrotation
            JOINT LeftHand
            {
              OFFSET 27.5643 0.085362 1.02216
              CHANNELS 3 Zrotation Xrotation Yrotation
              End Site
              {
                OFFSET 16.7443 -0.6 1.50291
              }
            }
          }
        }
      }
      JOINT RightShoulder
      {
        OFFSET -8.99 -0.362252 -0.22
        CHANNELS 3 Zrotation Xrotation Yrotation
        JOINT RightArm
        {
          OFFSET -10.2827 -0.00338 0.322123
          CHANNELS 3 Zrotation Xrotation Yrotation
          JOINT RightForeArm
          {
            OFFSET -32.8971 0.099144 -1.42434
            CHANNELS 3 Zrotation Xrotation Yrotation
            JOINT RightHand
            {
              OFFSET -27.4921 0.085362 1.02216
              CHANNELS 3 Zrotation Xrotation Yrotation
              End Site
              {
                OFFSET -16.6312 -0.6 1.50291
              }
            }
          }
        }
      }
    }
  }
  JOINT LeftUpLeg
  {
    OFFSET 8.9458 -8.66707 0.101652
    CHANNELS 3 Zrotation Xrotation Yrotation
    JOINT LeftLeg
    {
      OFFSET 0 -44.4227 1.3727
      CHANNELS 3 Zrotation Xrotation Yrotation
      JOINT LeftFoot
      {
        OFFSET -0.253549 -42.0924 -1.46059
        CHANNELS 3 Zrotation Xrotation Yrotation
        JOINT LeftToes
        {
          OFFSET -0.04 -4.41509 8.4991
          CHANNELS 3 Zrotation Xrotation Yrotation
          End Site
          {
            OFFSET 0.08 -0.047448 9.77979
          }
        }
      }
    }
  }
}
MOTION
Frames:	14
Frame Time:	0.0166667
3.84335 100.792 17.4886 2.36879 -0.515139 -175.021 -1.84013 -13.7785 -0.223326 9.95858 6.8428 -3.01859 -1.53134 1.64039 -0.0935254 0.652931 3.3977 0.420165 -1.01667 2.87936 0.523642 4.75405 3.60397 -0.518169 -0.403274 14.5833 0.090254 9.93923e-017 0 -0 -100.772 -43.273 -19.4639 -7.2774 14.3651 -30.5259 0.368473 9.90896 -0.00117926 -4.09195 0.393051 4.56859 84.0068 -45.1589 -2.14576 12.5756 15.3588 26.6173 -0.369625 9.91382 0.00119886 13.043 2.71112 1.30773 -13.8156 23.2491 -4.37142 -0.233794 -7.42145 -0.0458566 1.02619 -5.65148 -4.23009 
4.17265 100.962 16.3595 2.33578 -0.536997 -175.294 -1.50617 -13.0282 -0.12237 9.93745 6.69942 -2.68605 -1.70848 1.25097 -0.0957657 0.859404 3.19296 0.145185 -0.931528 2.88445 0.586078 5.31537 3.15704 -0.553541 -0.659328 14.8307 0.341864 -1.98785e-016 -7.95139e-016 -0 -100.589 -44.5299 -18.4145 -7.24824 14.3358 -30.4524 0.368473 9.90896 -0.00117926 -4.43712 0.379611 4.8172 84.0428 -45.4449 -2.06196 12.3604 15.2804 26.4506 -0.369625 9.91382 0.00119886 13.0737 2.79948 1.54097 -13.3277 24.2044 -4.47172 -0.223638 -6.74731 -0.0408409 1.8697 -4.93004 -5.0022 
4.5154 101.126 15.2442 2.26076 -0.647266 -175.575 -1.17894 -12.3558 -0.181685 9.83853 6.52754 -2.29205 -1.92644 0.918859 -0.097096 0.930089 2.87842 0.0144455 -0.817178 2.89554 0.634054 5.75403 2.63503 -0.568372 -0.901073 15.0707 0.604721 4.96962e-016 1.59028e-015 -0 -100.194 -45.7364 -17.3387 -7.21633 14.2988 -30.1939 0.368473 9.90896 -0.00117926 -4.71085 0.36997 5.04477 83.971 -45.6281 -2.12994 12.2722 15.2592 26.4835 -0.369625 9.91382 0.00119886 13.0265 2.721 1.72891 -12.8596 25.2232 -4.75607 -0.213727 -5.98188 -0.0362195 2.41508 -4.09754 -5.27152 
4.85741 101.276 14.1853 2.13256 -0.806336 -175.704 -0.948716 -11.8424 -0.409671 9.68703 6.53111 -1.98157 -2.11591 0.56398 -0.101223 0.854022 2.70972 0.0810491 -0.662224 2.94155 0.662216 6.05756 2.11939 -0.565097 -1.18518 15.1451 0.75554 -4.96962e-017 1.59028e-015 -0 -99.7059 -46.6523 -16.3555 -7.09389 14.2315 -29.7974 0.368473 9.90896 -0.00117926 -4.78231 0.364971 5.04356 83.6537 -45.4971 -2.28574 12.4373 15.3174 26.6245 -0.369625 9.91382 0.00119886 12.8437 2.44368 1.5155 -12.547 26.2747 -5.64696 -0.165749 -5.15765 -0.0309596 1.47377 -2.98447 -3.38075 
5.18773 101.402 13.1614 1.97467 -0.990844 -175.846 -0.776385 -11.4565 -0.568553 9.56267 6.67907 -1.72455 -2.28674 0.153292 -0.108332 0.777007 2.5633 0.153185 -0.498479 2.99982 0.684434 6.32586 1.65144 -0.558203 -1.51442 15.106 0.945491 -9.93923e-016 0 -0 -99.192 -47.4846 -15.445 -6.94162 14.1521 -29.284 0.368473 9.90896 -0.00117926 -4.85817 0.359318 5.05375 83.3416 -45.2302 -2.40599 12.6842 15.4044 26.8223 -0.369625 9.91382 0.00119886 12.5981 1.98322 1.28429 -12.2392 27.5334 -6.40382 -0.0763908 -4.28205 -0.0249166 0.523828 -1.65418 -1.49444 
5.48264 101.482 12.162 1.79901 -1.16687 -176.163 -0.672808 -11.2277 -0.366839 9.57503 7.06055 -1.51303 -2.42549 -0.399652 -0.12054 0.9063 2.39558 -0.025623 -0.365638 3.06395 0.71605 6.67448 1.29462 -0.564097 -1.91229 14.9293 1.33463 8.44835e-016 1.59028e-015 1.59028e-015 -98.7578 -48.4279 -14.6085 -6.79627 14.0724 -28.6939 0.368473 9.90896 -0.00117926 -5.15288 0.346609 5.29924 83.2874 -44.9184 -2.3016 12.8755 15.4714 26.9567 -0.369625 9.91382 0.00119886 12.3475 1.364 1.33722 -11.9045 29.1776 -6.1241 0.051001 -3.4091 -0.0156311 1.25338 -0.188838 -1.79304 
5.76629 101.535 11.1978 1.62578 -1.3266 -176.507 -0.606552 -11.0542 0.0201843 9.66201 7.51888 -1.42617 -2.53317 -1.01471 -0.135787 1.03662 2.22227 -0.207785 -0.228664 3.11411 0.747295 7.04168 1.0641 -0.579267 -2.37101 14.6835 1.77246 8.44835e-016 0 7.95139e-016 -98.3607 -49.2886 -13.8771 -6.6435 13.9898 -28.0168 0.368473 9.90896 -0.00117926 -5.51168 0.331011 5.62108 83.3314 -44.6121 -2.11766 13.0383 15.5368 27.1424 -0.369625 9.91382 0.00119886 12.1068 0.529014 1.56228 -11.585 31.2213 -5.60686 0.27459 -2.43152 -0.00901274 2.46457 1.57324 -2.53938 
6.06211 101.574 10.2696 1.47986 -1.44874 -176.809 -0.543819 -10.8124 0.591744 9.81558 7.86765 -1.58092 -2.59885 -1.61448 -0.152125 1.02442 2.01407 -0.22377 -0.0664035 3.11554 0.773813 7.39699 1.00955 -0.605966 -2.9421 14.435 2.20481 1.2424e-015 7.95139e-016 -7.95139e-016 -97.9287 -49.8988 -13.2606 -6.51079 13.9132 -27.199 0.368473 9.90896 -0.00117926 -5.85319 0.314978 5.97015 83.4164 -44.4258 -1.9372 13.1332 15.5972 27.4671 -0.369625 9.91382 0.00119886 11.9374 -0.550391 1.98416 -11.3106 33.7391 -5.57216 0.806362 -1.28858 -0.0135576 3.2078 4.1377 -2.34294 
6.34843 101.586 9.39642 1.36592 -1.5395 -176.987 -0.497319 -10.5964 1.11687 10.0023 8.28444 -1.85803 -2.64465 -2.27721 -0.17134 0.900418 1.86264 -0.0962351 0.123363 3.10665 0.794689 7.76286 1.09093 -0.643341 -3.48191 14.1683 2.50545 -1.98785e-016 0 -7.95139e-016 -97.708 -50.3746 -12.8573 -6.30958 13.8197 -26.4097 0.368473 9.90896 -0.00117926 -6.1721 0.297244 6.24091 83.5022 -44.2591 -1.74724 13.2196 15.6662 27.8916 -0.369625 9.91382 0.00119886 11.7797 -1.93398 2.49661 -10.802 36.7106 -5.496 1.18308 0.10527 -0.0189881 3.9781 6.41283 -2.35852 
6.60778 101.552 8.61268 1.31183 -1.58158 -176.879 -0.452255 -10.4919 1.33592 10.1743 8.96758 -2.25553 -2.69393 -3.13914 -0.197426 0.559516 1.95125 0.327719 0.375418 3.1234 0.802642 8.15506 1.32777 -0.694364 -3.79369 13.8648 2.45413 1.54058e-015 0 3.97569e-016 -98.012 -50.7297 -12.8585 -5.90391 13.6772 -25.8069 0.368473 9.90896 -0.00117926 -6.41926 0.276178 6.22343 83.5334 -44.0141 -1.53513 13.3596 15.7622 28.4202 -0.369625 9.91382 0.00119886 11.611 -3.75355 3.04671 -9.75759 40.251 -4.76501 0.754011 2.07796 -0.0125452 5.54752 7.07492 -4.07102 
6.85097 101.505 7.87198 1.27395 -1.62418 -176.653 -0.43585 -10.4057 1.33815 10.367 9.66821 -2.53939 -2.73269 -3.9488 -0.221897 0.26 1.97564 0.691166 0.613006 3.13837 0.812437 8.56383 1.59096 -0.7499 -4.10222 13.6024 2.28207 2.33572e-015 -7.95139e-016 3.97569e-016 -98.5552 -51.1049 -12.991 -5.46798 13.5346 -25.3714 0.368473 9.90896 -0.00117926 -6.64548 0.255292 6.18174 83.4955 -43.7981 -1.38545 13.5032 15.8658 29.0104 -0.369625 9.91382 0.00119886 11.3697 -5.82082 3.50612 -8.62985 44.0347 -4.15812 0.290718 3.96307 -0.0102447 6.44856 7.30468 -5.09802 
7.08174 101.471 7.13238 1.21072 -1.7206 -176.422 -0.489498 -10.264 1.05383 10.5918 10.1885 -2.33174 -2.73354 -4.39999 -0.23348 0.336774 1.52956 0.536158 0.760486 3.1324 0.839504 8.99797 1.73209 -0.801591 -4.65741 13.481 2.15026 -1.83876e-015 -1.59028e-015 -3.97569e-016 -99.1457 -51.6775 -13.0075 -5.14979 13.4372 -25.1649 0.368473 9.90896 -0.00117926 -6.89643 0.238043 6.35501 83.3276 -43.712 -1.42283 13.6195 15.9663 29.641 -0.369625 9.91382 0.00119886 10.8973 -8.01517 3.72934 -7.36189 47.8493 -4.8392 0.542474 5.13253 -0.0308948 4.77603 8.23445 -2.5527 
7.30372 101.45 6.41502 1.14298 -1.84119 -176.19 -0.560803 -10.092 0.699406 10.8126 10.578 -2.05118 -2.75709 -4.79309 -0.24418 0.464589 1.10303 0.318358 0.849331 3.1167 0.874567 9.41522 1.82856 -0.849937 -5.17049 13.4161 2.04484 3.97569e-016 0 -0 -99.77 -52.3509 -12.9903 -4.89865 13.3649 -25.1006 0.368473 9.90896 -0.00117926 -7.13717 0.223057 6.60787 83.1236 -43.678 -1.50767 13.7167 16.0598 30.2524 -0.369625 9.91382 0.00119886 10.3393 -10.2739 3.70342 -6.1077 51.461 -5.73864 0.931026 5.79926 -0.0535535 2.41159 8.70706 0.58209 
7.51566 101.439 5.73408 1.09651 -1.98495 -175.982 -0.601789 -9.94121 0.518708 11.0303 10.8766 -2.13075 -2.88745 -5.44236 -0.267245 0.374273 1.16564 0.436694 0.918713 3.09783 0.90986 9.77977 1.89643 -0.8914 -5.35179 13.3406 2.0248 8.94531e-016 1.59028e-015 -3.97569e-016 -100.379 -53.0963 -12.9618 -4.69727 13.3066 -25.1277 0.368473 9.90896 -0.00117926 -7.33207 0.211157 6.85837 82.9112 -43.6246 -1.56424 13.8186 16.1504 30.7786 -0.369625 9.91382 0.00119886 9.75961 -12.5401 3.42424 -5.29705 54.6738 -5.79642 1.09661 5.871 -0.0619673 1.05564 7.6002 1.86166 
